<svg width="30" height="30" viewBox="0 0 30 30" fill="none" xmlns="http://www.w3.org/2000/svg">
<path d="M1.37195 26.2271H12.8594C14.6197 28.4541 17.3439 29.8857 20.3963 29.8857C25.6918 29.8857 30 25.5775 30 20.282C30 14.9866 25.6918 10.6784 20.3963 10.6784C17.242 10.6784 14.438 12.2073 12.6862 14.5628C11.9761 14.4139 11.2507 14.3369 10.5183 14.3369C4.71851 14.3369 0 19.0554 0 24.8552C0 25.6129 0.614268 26.2271 1.37195 26.2271ZM20.3963 13.4223C24.1788 13.4223 27.2561 16.4995 27.2561 20.282C27.2561 24.0645 24.1788 27.1418 20.3963 27.1418C16.6139 27.1418 13.5366 24.0645 13.5366 20.282C13.5366 16.4995 16.6139 13.4223 20.3963 13.4223Z" fill="white"/>
<path d="M10.5182 0.114334C7.35341 0.114334 4.77881 2.68903 4.77881 5.85375C4.77881 9.01848 7.35341 11.593 10.5182 11.593C13.683 11.593 16.2576 9.01848 16.2576 5.85375C16.2576 2.68903 13.683 0.114334 10.5182 0.114334Z" fill="white"/>
<path d="M17.6525 21.654H19.0244V23.0259C19.0244 23.7836 19.6387 24.3979 20.3964 24.3979C21.1541 24.3979 21.7683 23.7836 21.7683 23.0259V21.654H23.1403C23.898 21.654 24.5122 21.0397 24.5122 20.282C24.5122 19.5243 23.898 18.9101 23.1403 18.9101H21.7683V17.5381C21.7683 16.7804 21.1541 16.1662 20.3964 16.1662C19.6387 16.1662 19.0244 16.7804 19.0244 17.5381V18.9101H17.6525C16.8948 18.9101 16.2805 19.5243 16.2805 20.282C16.2805 21.0397 16.8948 21.654 17.6525 21.654Z" fill="white"/>
</svg>
