<svg width="21" height="21" viewBox="0 0 21 21" fill="none" xmlns="http://www.w3.org/2000/svg">
<path d="M10.9843 21C8.91742 21 7.23431 19.318 7.23431 17.25C7.23431 16.836 7.57031 16.5 7.98431 16.5C8.39832 16.5 8.73431 16.836 8.73431 17.25C8.73431 18.4911 9.74432 19.5 10.9843 19.5C12.2243 19.5 13.2343 18.4911 13.2343 17.25C13.2343 16.836 13.5703 16.5 13.9843 16.5C14.3983 16.5 14.7343 16.836 14.7343 17.25C14.7343 19.318 13.0514 21 10.9843 21Z" fill="black"/>
<path d="M19.2343 18H2.73431C1.76935 18 0.984375 17.215 0.984375 16.2501C0.984375 15.7379 1.2074 15.2531 1.59631 14.92C1.6214 14.898 1.64832 14.8781 1.67633 14.8599C3.14429 13.5789 3.98438 11.736 3.98438 9.78992V6.99994C3.98438 3.14008 7.12537 0 10.9843 0C11.1443 0 11.3174 0.00292969 11.4774 0.0300293C11.8863 0.0979614 12.0681 0.592041 12 1C11.9321 1.40796 11.6323 1.57709 11.2313 1.50897C11.1513 1.49597 11.0634 1.5 10.9843 1.5C7.95245 1.5 5.48438 3.96698 5.48438 6.99994V9.78992C5.48438 12.206 4.42529 14.4921 2.58142 16.0609C2.56641 16.073 2.55341 16.084 2.53729 16.095C2.51038 16.129 2.48438 16.181 2.48438 16.2501C2.48438 16.3859 2.59845 16.5 2.73431 16.5H19.2343C19.3704 16.5 19.4844 16.3859 19.4844 16.2501C19.4844 16.1799 19.4584 16.129 19.4304 16.095C19.4154 16.084 19.4024 16.073 19.3874 16.0609C17.5424 14.491 16.4844 12.206 16.4844 9.78992V8.70007C16.4844 8.28607 16.8204 7.95007 17.2344 7.95007C17.6484 7.95007 17.9844 8.28607 17.9844 8.70007V9.78992C17.9844 11.7371 18.8254 13.5809 20.2954 14.863C20.3223 14.881 20.3483 14.9 20.3723 14.9211C20.7614 15.2531 20.9844 15.7379 20.9844 16.2501C20.9844 17.215 20.1995 18 19.2343 18Z" fill="black"/>
</svg>
