<svg width="26" height="26" viewBox="0 0 26 26" fill="none" xmlns="http://www.w3.org/2000/svg">
<path d="M13 1C10.5142 1 6.16421 2.26316 5.54277 7.31579C4.92304 12.3544 6.16421 14.8947 1.19276 19.9474C0.786106 20.3607 0.944185 21.2105 2.43563 21.2105C3.92707 21.2105 10.1 21.2105 13 21.2105" stroke="black"/>
<path d="M9.27142 21.2104C9.68571 22.8947 9.89286 24.9999 13 24.9999" stroke="black"/>
<path d="M13 1C15.4858 1 19.8358 2.26316 20.4572 7.31579C21.077 12.3544 19.8358 14.8947 24.8072 19.9474C25.2139 20.3607 25.0558 21.2105 23.5644 21.2105C22.0729 21.2105 15.9 21.2105 13 21.2105" stroke="black"/>
<path d="M16.7286 21.2104C16.3143 22.8947 16.1071 24.9999 13 24.9999" stroke="black"/>
</svg>
